<svg xmlns="http://www.w3.org/2000/svg" width="200" height="200" style="shape-rendering:geometricPrecision;text-rendering:geometricPrecision;image-rendering:optimizeQuality;fill-rule:evenodd;clip-rule:evenodd"><path style="opacity:.999" fill="#48d5ac" d="M92.5-.5h18l7 2q-3.352-.442-6 1a4.93 4.93 0 0 0-3 .5L197 91.5l1 4q.315-2.337 1.5-4v18q-17.412-15.135-34.5-33-.238 2.765-1.5 2 1.26-25.24-24-25-.657.098-1-.5l2-1a1801 1801 0 0 0-51-50 82 82 0 0 0 3-2.5"/><path style="opacity:1" fill="#3d9295" d="M7.5.5q4.536.026 8 3a10025 10025 0 0 1 83.5 85 25 25 0 0 1 4.5-4v1q-2 3-5 5 .098-.658-.5-1l-3 3Q49.338 46.077 3.5 2.5q1.52-1.76 4-2"/><path style="opacity:.999" fill="#46caa8" d="M89.5-.5h3Q91.105.722 89.5 2a1801 1801 0 0 1 51 50l-2 1q.343.598 1 .5a363 363 0 0 1-6 3q.378-2.628-2.5-5L82.5 4l-4-1q4.035-.235 7-2.5 2.398.402 4-1"/><path style="opacity:1" fill="#45c2a6" d="M85.5.5q-2.965 2.266-7 2.5l4 1L131 51.5q2.878 2.372 2.5 5-3.462 2.955-7 6a2380 2380 0 0 1-58-58q8.3-2.7 17-4"/><path style="opacity:1" fill="#49ddaf" d="M111.5 2.5a8.44 8.44 0 0 1 4 .5A4751 4751 0 0 1 197 85.5q.348-1.855 1.5-3-.356 1.936 1 3v6q-1.185 1.663-1.5 4l-1-4L108.5 3a4.93 4.93 0 0 1 3-.5"/><path style="opacity:.998" fill="#4ae3b1" d="M111.5 2.5q2.648-1.442 6-1 8.082.393 15 4-1.884-.058-3 1.5 33.95 34.73 67 65.5l2 10q-1.152 1.145-1.5 3A4751 4751 0 0 0 115.5 3a8.44 8.44 0 0 0-4-.5"/><path style="opacity:1" fill="#3c8c93" d="M3.5 2.5q45.838 43.577 91.5 90l3-3q.598.342.5 1-3 4-7 7 0-1-1-1l-88-88q-1.237-1.329-3-1v-1q1.46-2.46 4-4"/><path style="opacity:1" fill="#3e9998" d="M7.5.5v-1h7a181.3 181.3 0 0 1 26 19q28.92 31.428 61 62 1.695 1.683 2 4a25 25 0 0 0-4.5 4 10025 10025 0 0 0-83.5-85q-3.464-2.974-8-3"/><path style="opacity:1" fill="#4bebb3" d="M132.5 5.5q48.292 17.795 64 67-33.05-30.77-67-65.5 1.116-1.558 3-1.5"/><path style="opacity:1" fill="#43b8a2" d="M68.5 4.5a2380 2380 0 0 0 58 58q-3 4-7 7v-1q1.205-1.385.5-3L62.5 8q.835-.575 1-1.5 2.145-1.556 5-2"/><path style="opacity:1" fill="#3b8691" d="M-.5 7.5q1.763-.329 3 1l88 88a31.4 31.4 0 0 1-4.5 5 3386 3386 0 0 0-84.5-85q-1.003-3.195-2-6z"/><path style="opacity:.997" fill="#42b1a0" d="M63.5 6.5q-.165.925-1 1.5L120 65.5q.705 1.615-.5 3l-3 2a878 878 0 0 1-61-61z"/><path style="opacity:1" fill="#41ab9e" d="M55.5 9.5a878 878 0 0 0 61 61 31.5 31.5 0 0 1-4.5 5 5465 5465 0 0 0-62.5-62 915 915 0 0 1 6-4"/><path style="opacity:1" fill="#40a49b" d="M49.5 13.5a5465 5465 0 0 1 62.5 62 31.5 31.5 0 0 0 4.5-5l3-2v1q-4.5 5.5-10 10-1.243-1.248-2.5 1a5704 5704 0 0 0-62.5-64q2.1-2.085 5-3"/><path style="opacity:1" fill="#3f9e9a" d="M44.5 16.5a5704 5704 0 0 1 62.5 64q1.257-2.248 2.5-1a25.7 25.7 0 0 1-6 6v-1q-.305-2.317-2-4-32.08-30.572-61-62z"/><path style="opacity:1" fill="#3a7e8f" d="M-.5 10.5q.997 2.805 2 6a3386 3386 0 0 1 84.5 85 31.4 31.4 0 0 0 4.5-5q1 0 1 1a46 46 0 0 1-5.5 6 242 242 0 0 0-23.5-22q.658.098 1-.5a29 29 0 0 0-10-3L1 25.5q-.279-3.804-1.5-7z"/><path style="opacity:1" fill="#38758c" d="M-.5 18.5q1.221 3.196 1.5 7L53.5 78a29 29 0 0 1 10 3q-.342.598-1 .5a44.8 44.8 0 0 0-10-1q-.626-.936-2-1-4.004 1.78-8 2.5a2346 2346 0 0 0-41-40.5 111 111 0 0 0-2-5z"/><path style="opacity:1" fill="#376d89" d="M-.5 36.5q.995 2.313 2 5a2346 2346 0 0 1 41 40.5q3.996-.72 8-2.5 1.374.064 2 1-5.067.784-9 4-.595-1.538-2-.5L38 87.5a637 637 0 0 0-36.5-37 246 246 0 0 0-2-7z"/><path style="opacity:1" fill="#fdfefe" d="M139.5 53.5q25.26-.24 24 25-2.479 3.945-5 8-4.5 3.5-8 8-4 3-7 7a102 102 0 0 0-12 12q-2.5 1.5-4 4-2.5 1.5-4 4-4 3-7 7-1.5.5-2 2-5.5 4.5-10 10-3 2-5 5a903 903 0 0 0-6 4q-10.056 2.837-19-2.5L40 112.5q-5.145-7.692-4.5-17 2.795-6.308 8-11 3.933-3.216 9-4 5.07-.06 10 1a242 242 0 0 1 23.5 22 46 46 0 0 0 5.5-6q4-3 7-7 3-2 5-5a25.7 25.7 0 0 0 6-6q5.5-4.5 10-10 4-3 7-7 3.538-3.045 7-6a363 363 0 0 0 6-3"/><path style="opacity:1" fill="#356285" d="M-.5 43.5a246 246 0 0 1 2 7 637 637 0 0 1 36.5 37l3.5-3.5q1.405-1.038 2 .5-5.205 4.692-8 11 .098-.658-.5-1-.434 2.316-2 4Q18.5 82 2 67.5l-1 1q-.285-3.312-1.5-6z"/><path style="opacity:.997" fill="#335580" d="M-.5 62.5q1.215 2.688 1.5 6l1-1q16.5 14.5 31 31 1.566-1.684 2-4 .598.342.5 1-.645 9.308 4.5 17L74.5 147q8.944 5.337 19 2.5-1.596 2.323-6 3.5 23.036 21.832 43 41.5-7.495 3.374-16 4A6132 6132 0 0 0 1 83.5q-.348-1.855-1.5-3z"/><path style="opacity:1" fill="#324d7e" d="M-.5 80.5q1.152 1.145 1.5 3a6132 6132 0 0 1 113.5 115q-1.487-.257-2 1h-1q-2.177-1.203-5-1.5A16243 16243 0 0 1-.5 90.5z"/><path style="opacity:1" fill="#46c6a7" d="M199.5 109.5v4q-1.488 5.86-3 12-21.059-18.544-38-39 2.521-4.055 5-8 1.262.765 1.5-2 17.088 17.865 34.5 33"/><path style="opacity:1" fill="#31487c" d="M-.5 90.5a16243 16243 0 0 0 107 107.5q2.823.297 5 1.5h-9a24.6 24.6 0 0 0-5-5q-1.329-1.237-1-3-13.826-10.064-25.5-23a4.93 4.93 0 0 1-.5-3q-7.082-3.702-12.5-10a4.93 4.93 0 0 1-.5-3q-2.9-.343-5-2.5a3925 3925 0 0 0-53-52.5z"/><path style="opacity:1" fill="#44baa3" d="M158.5 86.5q16.941 20.456 38 39a71 71 0 0 1-3 9q-1.857 1.368-4 .5a739 739 0 0 1-39-40.5q3.5-4.5 8-8"/><path style="opacity:1" fill="#42af9f" d="M150.5 94.5a739 739 0 0 0 39 40.5q2.143.868 4-.5-2.447 8.896-8 16-20.375-22.889-44-45a15 15 0 0 1 3-3.5q-.343-.598-1-.5 3-4 7-7"/><path style="opacity:.992" fill="#30427a" d="M-.5 97.5a3925 3925 0 0 1 53 52.5q2.1 2.157 5 2.5a4.93 4.93 0 0 0 .5 3q5.418 6.298 12.5 10a4.93 4.93 0 0 0 .5 3q11.674 12.936 25.5 23-.329 1.763 1 3a24.6 24.6 0 0 1 5 5h-13q-1.647-1.345 0-2.5A5471 5471 0 0 0 1 109.5q-.574.834-1.5 1z"/><path style="opacity:1" fill="#40a29b" d="M143.5 101.5q.657-.098 1 .5a15 15 0 0 0-3 3.5q23.625 22.111 44 45-1.26 3.53-4 6-1.494-.129-2.5 1a1048 1048 0 0 1-38.5-38.5q-3.599-4.296-9-5.5a102 102 0 0 1 12-12"/><path style="opacity:.998" fill="#2f3b78" d="M89.5 199.5h-3v-1a275 275 0 0 1-7-2.5q-38.841-39.602-78-76.5a100 100 0 0 0-2-8v-1q.926-.166 1.5-1A5471 5471 0 0 1 89.5 197q-1.647 1.155 0 2.5"/><path style="opacity:1" fill="#3e9998" d="M131.5 113.5q5.401 1.204 9 5.5a1048 1048 0 0 0 38.5 38.5q1.006-1.129 2.5-1a24.2 24.2 0 0 1-7 9q-1.911-1.034 0-2.5-23.83-24.617-47-45.5 1.5-2.5 4-4"/><path style="opacity:1" fill="#3d9296" d="M127.5 117.5q23.17 20.883 47 45.5-1.911 1.466 0 2.5a6.55 6.55 0 0 1-3 3l-48-47q1.5-2.5 4-4"/><path style="opacity:.999" fill="#2e3475" d="M1.5 119.5q39.159 36.898 78 76.5 3.64 1.353 7 2.5-11.158-.426-21-5 1.538-.595.5-2l-58-58q-1.076.816-1.5 2-3.863-7.412-5-16"/><path style="opacity:1" fill="#3b8792" d="m123.5 121.5 48 47q-3.387 4.387-8 8a982 982 0 0 1-46.5-45q.163-1.904-.5-3 3-4 7-7"/><path style="opacity:.998" fill="#2d2d73" d="M65.5 193.5q-42.418-15.918-59-58 .425-1.184 1.5-2l58 58q1.038 1.405-.5 2"/><path style="opacity:1" fill="#3a7e8f" d="M116.5 128.5q.663 1.096.5 3a982 982 0 0 0 46.5 45 36 36 0 0 1-8 6 4.93 4.93 0 0 0-.5-3l-43-43q.293-3.367 3.5-5.5-.342-.598-1-.5.5-1.5 2-2"/><path style="opacity:1" fill="#39758c" d="M114.5 130.5q.658-.098 1 .5-3.207 2.133-3.5 5.5l43 43q.724 1.422.5 3-2.099 2.085-5 3a4.93 4.93 0 0 1-3-.5q-22.86-22.089-43-44.5 4.5-5.5 10-10"/><path style="opacity:1" fill="#376e89" d="M104.5 140.5q20.14 22.411 43 44.5a4.93 4.93 0 0 0 3 .5q-4.297 3.77-10 5a505 505 0 0 0-42-42.5q2.248-1.257 1-2.5 2-3 5-5"/><path style="opacity:.997" fill="#366285" d="M99.5 145.5q1.248 1.243-1 2.5a505 505 0 0 1 42 42.5q-4.305 3.442-10 4-19.964-19.668-43-41.5 4.404-1.177 6-3.5a903 903 0 0 1 6-4"/></svg>