<svg xmlns="http://www.w3.org/2000/svg" width="200" height="200" style="shape-rendering:geometricPrecision;text-rendering:geometricPrecision;image-rendering:optimizeQuality;fill-rule:evenodd;clip-rule:evenodd"><path style="opacity:.008" fill="#43443f" d="M-.5-.5h1Q.222.505-.5-.5"/><path style="opacity:.017" fill="#43443f" d="M5.5-.5h3a57.5 57.5 0 0 1-9 9v-3a25.6 25.6 0 0 0 6-6"/><path style="opacity:.018" fill="#43443f" d="M13.5-.5h3l-17 17v-3Q7 7 13.5-.5"/><path style="opacity:.023" fill="#43443f" d="M20.5-.5h3a408 408 0 0 1-24 24v-2a163.6 163.6 0 0 0 21-22"/><path style="opacity:.018" fill="#43443f" d="M28.5-.5h3Q16 16-.5 31.5v-3q15-14 29-29m8 0h3Q20 20-.5 39.5v-3q19-18 37-37m8 0h3a1630 1630 0 0 1-48 48v-3a1432 1432 0 0 0 45-45"/><path style="opacity:.027" fill="#443f41" d="M67.5-.5h3l-3 4a4.93 4.93 0 0 1-3-.5 14.7 14.7 0 0 0 3-3.5"/><path style="opacity:.018" fill="#433a42" d="M75.5-.5h3v1q-1.936.356-3-1"/><path style="opacity:.998" fill="#47af2c" d="M94.5-.5h5Q50 50-.5 99.5v-6z"/><path style="opacity:.998" fill="#47ae2c" d="M99.5-.5h11a8713 8713 0 0 0-111 111v-11Q50 50 99.5-.5"/><path style="opacity:.02" fill="#433d41" d="M122.5-.5h3q-1.5 2-3 0"/><path style="opacity:.017" fill="#443f40" d="M130.5-.5h3q-1.351 3.34-5 3z"/><path style="opacity:.018" fill="#444040" d="M138.5-.5h3a26.4 26.4 0 0 0-4 4.5 4.93 4.93 0 0 1-3 .5z"/><path style="opacity:.022" fill="#444340" d="M145.5-.5h3q-3.042 4.83-8 6.5 3.398-2.637 5-6.5"/><path style="opacity:.018" fill="#444240" d="M153.5-.5h3q-4.594 6.1-11 10a56.7 56.7 0 0 1 8-10m8 0h3q-6.089 7.593-14 13a100.6 100.6 0 0 1 11-13"/><path style="opacity:.018" fill="#444340" d="M169.5-.5h3a96.3 96.3 0 0 1-17 16 157 157 0 0 1 14-16"/><path style="opacity:.018" fill="#434340" d="M177.5-.5h3a255 255 0 0 1-19 19q-1.532-.752-.5-2a395 395 0 0 0 16.5-17"/><path style="opacity:.024" fill="#444340" d="M185.5-.5h2a374 374 0 0 1-23 23 341 341 0 0 1 21-23"/><path style="opacity:.018" fill="#444340" d="M192.5-.5h3a248 248 0 0 1-27 26 438 438 0 0 1 24-26"/><path style="opacity:1" fill="#47ae2c" d="M84.5-.5h10l-95 94v-9q1.402-1.602 1-4 1.185 1.663 1.5 4l1-4L81.5 2q-1.373-.417-2-1.5 2.872.426 5-1"/><path style="opacity:1" fill="#47b02c" d="M110.5-.5h4l6 2a3220 3220 0 0 1-47.5 48L70.5 47 114 3.5q1-1 0-2-22.5 21.5-44 44a4.93 4.93 0 0 0-.5 3q-3.297-.57-5 2-1.5.5-2 2a6.54 6.54 0 0 0-3 3q-1 0-1 1-1 0-1 1-1 0-1 1-1 0-1 1-1 0-1 1-1 0-1 1-1 0-1 1-1 0-1 1-1 0-1 1-1 0-1 1-1.184.424-2 1.5a9.17 9.17 0 0 1 2 4.5q-1.852-.332-3-2a2762 2762 0 0 0-44.5 44q-.315 2.337-1.5 4 .356-1.936-1-3v-4a8713 8713 0 0 1 111-111"/><path style="opacity:.018" fill="#444340" d="M199.5 1.5v3a474 474 0 0 1-27 25 267 267 0 0 1 27-28"/><path style="opacity:1" fill="#48af2c" d="M78.5.5h1q.627 1.083 2 1.5L3 80.5l-1 4q-.315-2.337-1.5-4a44 44 0 0 1 2-6 1910 1910 0 0 0 74-73q1.487.258 2-1"/><path style="opacity:1" fill="#47af2c" d="M120.5 1.5q3.541.26 7 1a3483 3483 0 0 1-49.5 50q-.292 1.98.5 4l-2-1q-1.5-2.5-4-4a6.54 6.54 0 0 0-3-3 4.93 4.93 0 0 1 .5-3q21.5-22.5 44-44 1 1 0 2L70.5 47l2.5 2.5a3220 3220 0 0 0 47.5-48m-44 0a1910 1910 0 0 1-74 73 52 52 0 0 0 1-7 27.2 27.2 0 0 0 3-5A1358 1358 0 0 0 61 9.5l1.5-3a27.2 27.2 0 0 1 5-3 33.7 33.7 0 0 0 9-2"/><path style="opacity:1" fill="#47ae2c" d="M127.5 2.5h1q2.571 1.857 6 2v1a3927 3927 0 0 1-52.5 53q-1.224-1.985-3.5-2-.792-2.02-.5-4a3483 3483 0 0 0 49.5-50"/><path style="opacity:.014" fill="#443f40" d="M60.5-.5h2q-4.425 4.932-9 10-3.222.165-1-2a45.4 45.4 0 0 0 8-8"/><path style="opacity:1" fill="#47af2b" d="m134.5 5.5 4 1a1566 1566 0 0 1-57 58.5q-1.405 1.038-2-.5 2.226-4.366-1-8 2.276.015 3.5 2a3927 3927 0 0 0 52.5-53"/><path style="opacity:1" fill="#47ae2c" d="m62.5 6.5-1.5 3a1358 1358 0 0 1-54.5 53 71 71 0 0 1 3-9 437 437 0 0 1 16-23q1 0 1-1 1 0 1-1 1 0 1-1 1 0 1-1 1 0 1-1 9.508-7.01 19-14 2.48-.24 4-2a50 50 0 0 1 9-3m76 0a32.5 32.5 0 0 0 7 3v1a6870 6870 0 0 1-69.5 70 2.43 2.43 0 0 0-.5 2l-2-2q-2.622-2.49-1.5-6 2.969-5.7 7.5-10 .595 1.538 2 .5a1566 1566 0 0 0 57-58.5"/><path style="opacity:.018" fill="#434340" d="M199.5 9.5v3l-23 22a4.93 4.93 0 0 1 .5-3 696 696 0 0 1 22.5-22"/><path style="opacity:.004" fill="#43443f" d="M49.5 11.5q-1-2 0 0"/><path style="opacity:1" fill="#47b02b" d="M145.5 10.5q1.487-.258 2 1-1.73 1.22 0 3a56874 56874 0 0 0-64 64q-3.138 3.158-7 5-1 0-1-1a2.43 2.43 0 0 1 .5-2 6870 6870 0 0 0 69.5-70"/><path style="opacity:1" fill="#47ae2c" d="M147.5 11.5q1.337.915 3 1 2.099 2.085 5 3v1a1912 1912 0 0 0-73 74l-2-1-4-6q3.862-1.842 7-5a56874 56874 0 0 1 64-64q-1.73-1.78 0-3"/><path style="opacity:1" fill="#47b02b" d="M155.5 16.5a26.7 26.7 0 0 1 7 5q-2.377.728-4.5-2a2557 2557 0 0 1-74.5 73q-1.257-.513-1-2a1912 1912 0 0 1 73-74"/><path style="opacity:.018" fill="#434340" d="M199.5 17.5v3a469 469 0 0 0-18.5 18l-1.5-1.5a549 549 0 0 1 20-19.5"/><path style="opacity:1" fill="#47ae2c" d="m162.5 21.5 2 1v1a3980 3980 0 0 0-75 75l-5-4-1-2a2557 2557 0 0 0 74.5-73q2.123 2.728 4.5 2"/><path style="opacity:1" fill="#47af2c" d="M164.5 23.5q1 0 1 1 .016 2.276 2 3.5a2626 2626 0 0 0-74 75.5l-2-1-2-4a3980 3980 0 0 1 75-75"/><path style="opacity:.023" fill="#434340" d="M199.5 25.5v2a159 159 0 0 0-15 15 4.45 4.45 0 0 1-2-1.5 377 377 0 0 0 17-15.5"/><path style="opacity:.031" fill="#443f41" d="M52.5-.5h3l-25 26q-1 0-1 1-1 0-1 1-1 0-1 1-1 0-1 1-1 0-1 1l-26 25v-3q27-26 53-53"/><path style="opacity:1" fill="#47af2c" d="M165.5 24.5q1.337.915 3 1 1.5 2.5 4 4v2a2014 2014 0 0 0-75 76l-2-1-2-3a2626 2626 0 0 1 74-75.5q-1.984-1.224-2-3.5"/><path style="opacity:1" fill="#48b02b" d="M172.5 31.5q1.5.5 2 2a3980 3980 0 0 1-75 75q-1.487.257-2-1a2014 2014 0 0 1 75-76"/><path style="opacity:.019" fill="#444340" d="M199.5 32.5v3a211 211 0 0 0-12.5 12l-.5-1.5a128.6 128.6 0 0 1 13-13.5"/><path style="opacity:1" fill="#47af2b" d="m174.5 33.5 2 1 2 3a3980 3980 0 0 1-75 75q-2.5-1.5-4-4a3980 3980 0 0 0 75-75"/><path style="opacity:1" fill="#47ae2b" d="M178.5 37.5a41 41 0 0 1 5 7 1909 1909 0 0 0-74 73 18.3 18.3 0 0 1-6-4v-1a3980 3980 0 0 0 75-75"/><path style="opacity:.018" fill="#434340" d="M199.5 40.5v3a120 120 0 0 0-9.5 9l-.5-1.5a49.8 49.8 0 0 1 10-10.5"/><path style="opacity:1" fill="#47b02b" d="m183.5 44.5 1 2a2419 2419 0 0 1-71 72.5 2.43 2.43 0 0 1-2 .5q-1.5-.5-2-2a1909 1909 0 0 1 74-73"/><path style="opacity:.018" fill="#444340" d="M199.5 48.5v3a34.5 34.5 0 0 1-8 6q2.895-5.4 8-9"/><path style="opacity:1" fill="#47ae2c" d="M184.5 46.5a36 36 0 0 1 4 7l-70 71h-2q-1.144-2.643-4-3l-1-2a2.43 2.43 0 0 0 2-.5 2419 2419 0 0 0 71-72.5"/><path style="opacity:.02" fill="#443d41" d="M64.5 50.5q3.65.428 0 2zm-2 2h2q-1.572 3.65-2 0"/><path style="opacity:.018" fill="#434240" d="M72.5 51.5a2.43 2.43 0 0 1-.5 2 182 182 0 0 1-20.5 19 2.43 2.43 0 0 1 .5-2 182 182 0 0 1 20.5-19"/><path style="opacity:1" fill="#48b02b" d="M188.5 53.5q1.76 1.52 2 4a3366 3366 0 0 0-69 69q-2.29.11-3-2z"/><path style="opacity:.02" fill="#443b40" d="M59.5 55.5a2.43 2.43 0 0 1 2 .5L50 67.5a2.43 2.43 0 0 1-.5-2q1 0 1-1 1 0 1-1 1 0 1-1 1 0 1-1 1 0 1-1 1 0 1-1 1 0 1-1 1 0 1-1 1 0 1-1 1 0 1-1"/><path style="opacity:.018" fill="#444240" d="M76.5 55.5a211 211 0 0 1-20.5 22q-.575-.835-1.5-1a163.4 163.4 0 0 1 22-21"/><path style="opacity:.017" fill="#434340" d="M199.5 56.5v3a25 25 0 0 0-4.5 4q-.048-4.751 4.5-7"/><path style="opacity:.025" fill="#444240" d="m9.5 53.5-10 9v-2a259 259 0 0 0 9.5-9q.696.891.5 2"/><path style="opacity:1" fill="#47ae2c" d="M190.5 57.5h1a3887 3887 0 0 0 3 10 972 972 0 0 1-52 53q-2.793-2.962-6-1-2.29-.11-3 2-1 0-1 1l-10 5q-.91-.186-1-1a3366 3366 0 0 1 69-69"/><path style="opacity:.021" fill="#444240" d="M199.5 64.5v3q-1.875.116-2.5 2-1.12-3.641 2.5-5"/><path style="opacity:.018" fill="#444040" d="m3.5 67.5-4 3v-3q1.94-1.185 3.5-3 .725 1.422.5 3"/><path style="opacity:.019" fill="#434240" d="M78.5 59.5q1.447 1.831-.5 4L60.5 81q-1.838.845-3-1a203 203 0 0 0 21-20.5"/><path style="opacity:1" fill="#47ae2c" d="m49.5 71.5 2 1v2a864 864 0 0 0-49 50q-1.36-3.235-2-7 1.185-1.663 1.5-4a2762 2762 0 0 1 44.5-44q1.148 1.668 3 2m145-4q1.401 1.602 1 4a25 25 0 0 1-.5 7 1047 1047 0 0 0-46.5 48l-2-1q-1.5-2.5-4-4v-1a972 972 0 0 0 52-53"/><path style="opacity:.024" fill="#433f41" d="M199.5 72.5v2h-2q0-2 2-2"/><path style="opacity:.027" fill="#403b45" d="M-.5 75.5q2 1.5 0 3z"/><path style="opacity:.024" fill="#444040" d="M61.5 86.5q-.329-1.762 1-3a74 74 0 0 0 7.5-7q-2.69 5.97-8.5 10"/><path style="opacity:1" fill="#47ae2c" d="m195.5 71.5 2 3q.306 4.527 1 9a2825 2825 0 0 0-45 44.5 4.93 4.93 0 0 1-3 .5q-1.5-.5-2-2a1047 1047 0 0 1 46.5-48q.745-3.465.5-7"/><path style="opacity:1" fill="#47af2c" d="m51.5 74.5 3 2a59 59 0 0 0 5 9 974 974 0 0 1-52 53q-4.125-6.284-5-14a864 864 0 0 1 49-50"/><path style="opacity:.018" fill="#454140" d="M73.5 80.5q-2.353 6.857-9 10 3.399-5.904 9-10"/><path style="opacity:.019" fill="#444140" d="M75.5 85.5q1.185.424 2 1.5a85 85 0 0 1-8 7.5q-1.532-.752-.5-2a64 64 0 0 0 6.5-7"/><path style="opacity:1" fill="#47ae2c" d="m59.5 85.5 2 1q.789 2.596 3 4l1 2q-.33 3.895-1.5 0a3995 3995 0 0 1-53.5 53h-1a29.4 29.4 0 0 1-2-7 974 974 0 0 0 52-53"/><path style="opacity:.019" fill="#444041" d="M80.5 89.5q-2.243 6.26-8 10 0-1-1-1a57.5 57.5 0 0 1 9-9"/><path style="opacity:.997" fill="#47ae2c" d="M198.5 83.5q0 1 1 1v13a7274 7274 0 0 0-101 102h-11l48-48a240 240 0 0 0 3-6 194 194 0 0 1 11.5-12 12.9 12.9 0 0 0 .5-5 4.93 4.93 0 0 0 3-.5 2825 2825 0 0 1 45-44.5"/><path style="opacity:1" fill="#47af2b" d="M65.5 92.5q2.456 2.962 5 6-27 28-55 55a10.2 10.2 0 0 1-3-3l-2-5a3995 3995 0 0 0 53.5-53q1.17 3.895 1.5 0"/><path style="opacity:.019" fill="#434140" d="M84.5 94.5q-3 6-9 9 3-6 9-9"/><path style="opacity:.999" fill="#47af2c" d="M199.5 97.5v6a6523 6523 0 0 0-96 96h-5a7274 7274 0 0 1 101-102"/><path style="opacity:.025" fill="#444040" d="M79.5 107.5q2.832-5.099 7.5-9l1.5 1.5a98 98 0 0 0-9 7.5"/><path style="opacity:1" fill="#47ae2c" d="M70.5 98.5h1q1 0 1 1 .357 2.856 3 4 1.5 2.5 4 4v1a4151 4151 0 0 0-54.5 54q-.45 3.887 3.5 2.5 26.268-27.033 53-51.5a3937 3937 0 0 1-52.5 53l-1.5 3q-1.96-2.959-5-5a21.6 21.6 0 0 0-4-5q-.789-2.595-3-4v-2q28-27 55-55"/><path style="opacity:.018" fill="#434240" d="M91.5 102.5q-2.895 5.4-8 9 0-1-1-1 3.6-5.105 9-8"/><path style="opacity:.019" fill="#444240" d="M95.5 106.5q-2.895 5.4-8 9 0-1-1-1 3.6-5.105 9-8"/><path style="opacity:1" fill="#47ae2c" d="M199.5 103.5v11q-1.257.513-1 2-1.083.627-1.5 2l-1-2a9441 9441 0 0 0-81.5 82v1h-11a6523 6523 0 0 1 96-96"/><path style="opacity:.019" fill="#444240" d="M91.5 119.5q0-1-1-1a45.4 45.4 0 0 1 8-8q1.532.752.5 2a73 73 0 0 1-7.5 7"/><path style="opacity:1" fill="#47af2c" d="m79.5 108.5 3 2q1 0 1 1a6.54 6.54 0 0 0 3 3q1 0 1 1l2 3a2217 2217 0 0 1-56 56q-1.657-1.65-4-2l-2-3 1.5-3a3937 3937 0 0 0 52.5-53q-26.732 24.467-53 51.5-3.95 1.387-3.5-2.5a4151 4151 0 0 1 54.5-54"/><path style="opacity:.019" fill="#434240" d="M103.5 113.5q-2 7-9 9a57.5 57.5 0 0 1 9-9"/><path style="opacity:1" fill="#47b02b" d="M198.5 116.5a20.7 20.7 0 0 1-1 5 3870 3870 0 0 0-74 74q-3.576.767-6 3h-3a9441 9441 0 0 1 81.5-82l1 2q.417-1.373 1.5-2"/><path style="opacity:.023" fill="#434140" d="M99.5 126.5q-.165-.925-1-1.5a45.3 45.3 0 0 0 8.5-7.5l1.5 1.5a46.6 46.6 0 0 1-9 7.5"/><path style="opacity:1" fill="#47ae2c" d="M89.5 118.5h1q1 0 1 1a6.54 6.54 0 0 0 3 3l1 2a1306 1306 0 0 0-53.5 52 10.1 10.1 0 0 0-1.5 4q-4.398-1.95-7-6a2217 2217 0 0 0 56-56"/><path style="opacity:.02" fill="#434240" d="M112.5 121.5a73.5 73.5 0 0 1-7 7.5q-1.248 1.032-2-.5 3.234-5.247 9-7"/><path style="opacity:.004" fill="#444240" d="M199.5 120.5v2q-2-1 0-2"/><path style="opacity:.02" fill="#433f41" d="M-.5 122.5q2 1.5 0 3z"/><path style="opacity:.02" fill="#444340" d="M142.5 121.5a4.93 4.93 0 0 1-.5 3q-9.96 9.459-20 19-1-1 0-2a578 578 0 0 1 20.5-20"/><path style="opacity:1" fill="#47b02b" d="M95.5 124.5q1.5.5 2 2a4154 4154 0 0 1-54 54.5q1.32 1.063 2 2.5-2.9-.915-5-3a10.1 10.1 0 0 1 1.5-4 1306 1306 0 0 1 53.5-52"/><path style="opacity:.018" fill="#444040" d="M116.5 124.5q.166.925 1 1.5a102 102 0 0 1-10 7.5q3-6 9-9"/><path style="opacity:.023" fill="#444240" d="M146.5 125.5a2.43 2.43 0 0 1-.5 2 182 182 0 0 1-20.5 19 312 312 0 0 1 21-21"/><path style="opacity:1" fill="#47ae2c" d="M197.5 121.5a82 82 0 0 0-2 10l-4 7q-26.214 23.92-54 52.5.834.575 1 1.5-3.986.653-7 3-5.89.639-11 3h-3q2.424-2.233 6-3a3870 3870 0 0 1 74-74m-100 5h2l4 5a3925 3925 0 0 0-53 52.5 8.4 8.4 0 0 1-4 .5q-1 0-1-1-.68-1.437-2-2.5a4154 4154 0 0 0 54-54.5"/><path style="opacity:.018" fill="#444240" d="M111.5 136.5a107 107 0 0 1 8.5-9l1.5 1.5q-4.041 5.326-10 7.5"/><path style="opacity:.024" fill="#443f40" d="M199.5 126.5v3l-3 2q-.34-3.649 3-5"/><path style="opacity:.018" fill="#444240" d="M136.5 119.5a2.43 2.43 0 0 1 2 .5 211 211 0 0 1-22 20.5 202 202 0 0 1 16-18q1 0 1-1 2.29.11 3-2"/><path style="opacity:.031" fill="#434140" d="M-.5 133.5v-3q1.438-.679 2.5-2 1.12 3.642-2.5 5"/><path style="opacity:.004" fill="#444340" d="M195.5 131.5h1q-.5 4-1 0"/><path style="opacity:1" fill="#47af2c" d="m103.5 131.5 4 2a6.55 6.55 0 0 0 3 3q-27.05 27.541-53 54-6.233-1.863-11-6a8.4 8.4 0 0 0 4-.5 3925 3925 0 0 1 53-52.5"/><path style="opacity:.018" fill="#444240" d="M199.5 134.5v3l-9 8v-2q1.257-.513 1-2z"/><path style="opacity:.016" fill="#434240" d="M-.5 141.5v-3a25.2 25.2 0 0 0 4.5-4q.048 4.752-4.5 7"/><path style="opacity:1" fill="#47af2c" d="M110.5 136.5h1q1.619 3.064 5 4a10.2 10.2 0 0 0 3 3 936 936 0 0 1-52 51l-10-3v-1q25.95-26.459 53-54"/><path style="opacity:.022" fill="#444340" d="M-.5 148.5v-2a279 279 0 0 0 6-6l1 1a34.8 34.8 0 0 1-7 7"/><path style="opacity:1" fill="#47af2c" d="M191.5 138.5v3q-1.257.513-1 2-1.257.513-1 2a225 225 0 0 0-11 17q-1 0-1 1-1 0-1 1-1 0-1 1-2.643 1.144-3 4-1 0-1 1-1 0-1 1-1 0-1 1-3.373.87-5 4-1 0-1 1-1 0-1 1a225 225 0 0 0-17 11q-1.487-.257-2 1-1.487-.257-2 1a5.73 5.73 0 0 0-3 1q-.166-.925-1-1.5 27.786-28.58 54-52.5"/><path style="opacity:.027" fill="#443f40" d="M148.5 129.5q1.61 1.127.5 3a420 420 0 0 1-17.5 17q-1.532-.752-.5-2a444 444 0 0 0 17.5-18"/><path style="opacity:1" fill="#47ae2c" d="M119.5 143.5a409 409 0 0 0 6 3l1 2a866 866 0 0 0-50 49h-2a60 60 0 0 0-7-3 936 936 0 0 0 52-51"/><path style="opacity:.004" fill="#434140" d="M189.5 145.5h1q-.278 1.005-1 0"/><path style="opacity:.018" fill="#434340" d="M9.5 145.5q-3.9 6.406-10 11v-3a56.7 56.7 0 0 1 10-8"/><path style="opacity:1" fill="#47af2b" d="M138.5 145.5a240 240 0 0 1-3 6l-48 48h-3q-3.755-1.306-8-2a866 866 0 0 1 50-49q2.3 1.397 5 2a25.8 25.8 0 0 0 7-5"/><path style="opacity:.023" fill="#43443f" d="M199.5 150.5v2a766 766 0 0 0-46 47h-3q24-25 49-49"/><path style="opacity:.018" fill="#444240" d="M12.5 150.5q-5.407 7.911-13 14v-3a100.6 100.6 0 0 1 13-11"/><path style="opacity:.018" fill="#444340" d="M15.5 155.5a96.3 96.3 0 0 1-16 17v-3a157 157 0 0 1 16-14"/><path style="opacity:.031" fill="#444240" d="M199.5 142.5v3a2064 2064 0 0 0-54 54h-3l20-21q1 0 1-1 1 0 1-1 3.373-.87 5-4 1 0 1-1 1 0 1-1 1 0 1-1 2.643-1.144 3-4 1 0 1-1 1 0 1-1 1 0 1-1z"/><path style="opacity:.019" fill="#43443f" d="M199.5 157.5v3a1077 1077 0 0 0-39 39h-3a1249 1249 0 0 1 42-42"/><path style="opacity:.018" fill="#434340" d="M18.5 159.5a4.93 4.93 0 0 1-.5 3 468 468 0 0 1-18.5 18v-3z"/><path style="opacity:.024" fill="#444240" d="M22.5 164.5a374 374 0 0 1-23 23v-2a341 341 0 0 1 23-21"/><path style="opacity:.018" fill="#43443f" d="M199.5 165.5v3q-16 15-31 31h-3q16.5-17.5 34-34"/><path style="opacity:.018" fill="#444340" d="M-.5 195.5v-3a794 794 0 0 0 24-23.5q1.248-1.032 2 .5a478 478 0 0 1-26 26m30-23a474 474 0 0 1-25 27h-3a267 267 0 0 1 28-27"/><path style="opacity:.018" fill="#43443f" d="M199.5 173.5v3q-12 11-23 23h-3q12.5-13.5 26-26"/><path style="opacity:.018" fill="#444340" d="M12.5 199.5h-3a374 374 0 0 1 23-23q1.532.753.5 2a605 605 0 0 0-20.5 21m8 0h-3a549 549 0 0 1 19.5-20l1.5 1.5a469 469 0 0 0-18 18.5"/><path style="opacity:.018" fill="#43443f" d="M199.5 181.5v3a159 159 0 0 0-15 15h-3a230 230 0 0 1 18-18"/><path style="opacity:.023" fill="#444340" d="M28.5 199.5h-3q7.51-9.28 17-15.5a298 298 0 0 0-14 15.5"/><path style="opacity:.019" fill="#444340" d="M35.5 199.5h-3q6.234-7 13.5-13l1.5.5a211 211 0 0 0-12 12.5"/><path style="opacity:.017" fill="#444340" d="M43.5 199.5h-3a49.8 49.8 0 0 1 10.5-10l1.5.5a120 120 0 0 0-9 9.5"/><path style="opacity:.008" fill="#43413f" d="M145.5 189.5q2 1 0 0"/><path style="opacity:.019" fill="#43443f" d="M199.5 189.5v3q-3.928 2.928-7 7h-3q4.5-5.5 10-10"/><path style="opacity:.018" fill="#444340" d="M57.5 191.5a34.5 34.5 0 0 1-6 8h-3q3.6-5.105 9-8"/><path style="opacity:.018" fill="#434340" d="M59.5 199.5h-3q2.249-4.548 7-4.5a25 25 0 0 0-4 4.5"/><path style="opacity:.017" fill="#444240" d="M143.5 190.5h2l-8 9h-3l7-8q1.487.257 2-1"/><path style="opacity:.008" fill="#43413f" d="M131.5 195.5q2 1 0 0"/><path style="opacity:.018" fill="#434240" d="M67.5 199.5h-3q1.359-3.62 5-2.5-1.32 1.063-2 2.5"/><path style="opacity:.024" fill="#443f41" d="m131.5 196.5-2 3h-3q1.351-3.34 5-3"/><path style="opacity:.015" fill="#43443f" d="M199.5 197.5v2h-3q.71-2.11 3-2"/><path style="opacity:.024" fill="#433d41" d="M74.5 197.5v2h-3q.71-2.11 3-2"/><path style="opacity:.016" fill="#433f40" d="M120.5 198.5q1 0 1 1z"/></svg>