<svg xmlns="http://www.w3.org/2000/svg" width="200" height="200" style="shape-rendering:geometricPrecision;text-rendering:geometricPrecision;image-rendering:optimizeQuality;fill-rule:evenodd;clip-rule:evenodd"><path style="opacity:.987" fill="#f8991d" d="M88.5-.5h22q75 14 89 89v22q-14 75-89 89h-22q-73.632-13.632-89-87v-26q15.368-73.368 89-87"/><path style="opacity:.091" fill="#f89a1c" d="M144.5-.5h4a106 106 0 0 0 12 7.5q2.26 1.256 1.5 3.5a518 518 0 0 0-17.5-11"/><path style="opacity:.036" fill="#f8991d" d="M33.5 10.5q1.314-.195 2 1a121.2 121.2 0 0 0-19 18q-1.362-1.935.5-4a117 117 0 0 1 16.5-15"/><path style="opacity:.541" fill="#f8991d" d="M199.5 49.5v5a148.7 148.7 0 0 0-14-21.5q1.702-1.125 3 .5a3323 3323 0 0 0 11 16"/><path style="opacity:1" fill="#fab860" d="M163.5 50.5q-64.255-.498-128 1-.814-.09-1-1 64.748-1.995 129 0"/><path style="opacity:1" fill="#fffefd" d="M35.5 51.5a4097 4097 0 0 1 128-1 4469 4469 0 0 1-56 56.5q-6.374 5.482-14 2a4708 4708 0 0 0-58-57.5m-5 5a1308 1308 0 0 1 43 43 1248 1248 0 0 1-42 42 1807 1807 0 0 1-1-85"/><path style="opacity:1" fill="#fffefc" d="M167.5 56.5a925 925 0 0 1 0 86 2587 2587 0 0 1-42-43.5 843 843 0 0 1 42-42.5"/><path style="opacity:1" fill="#fde3c1" d="M30.5 56.5q-.497 42.757 1 85-.425 1.184-1.5 2-1.243-44.608.5-87"/><path style="opacity:1" fill="#fab760" d="M167.5 56.5q.09-.814 1-1a969 969 0 0 1 0 88q-.91-.186-1-1a925 925 0 0 0 0-86"/><path style="opacity:1" fill="#fffefd" d="M163.5 148.5a4096 4096 0 0 1-128-1 2638 2638 0 0 0 43.5-43A101.5 101.5 0 0 0 91.5 116q8.774 5.25 17-1a163 163 0 0 1 11-10.5 1369 1369 0 0 1 44 44"/><path style="opacity:1" fill="#f9aa40" d="M35.5 147.5a4096 4096 0 0 0 128 1 2084 2084 0 0 1-129 0q.186-.91 1-1"/><path style="opacity:.646" fill="#f8981c" d="M149.5 199.5h-4q1.142-1.337 3-2 1.197.686 1 2"/></svg>