<svg xmlns="http://www.w3.org/2000/svg" width="200" height="200" style="shape-rendering:geometricPrecision;text-rendering:geometricPrecision;image-rendering:optimizeQuality;fill-rule:evenodd;clip-rule:evenodd"><path style="opacity:.98" fill="#c50891" d="M84.5-.5h7a1205 1205 0 0 0 29 29.5l6 1q-4.297.275-8 1.5h-22q3.672-1.46 8-1a72.4 72.4 0 0 0 12-.5l-8-1A361 361 0 0 1 81.5.5q1.936.356 3-1"/><path style="opacity:.997" fill="#bf039e" d="M91.5-.5h14q16.669 18.174 35 34a105.2 105.2 0 0 0-22-2q3.703-1.225 8-1.5l-6-1a1205 1205 0 0 1-29-29.5"/><path style="opacity:.997" fill="#bc02a8" d="M105.5-.5h9q3.755 1.305 8 2 38.176 39.177 75 75 .453 4.31 2 8v9q-18.087-17.086-34-34-5.36-19.86-25-26-18.331-15.826-35-34"/><path style="opacity:1" fill="#c70083" d="M81.5.5a361 361 0 0 0 27 28.5l8 1a72.4 72.4 0 0 1-12 .5q-2.688-1.215-6-1.5a971 971 0 0 1-26-26.5q4.44-1.235 9-2"/><path style="opacity:.972" fill="#ba00b0" d="M122.5 1.5q59 16 75 75-36.824-35.823-75-75"/><path style="opacity:.978" fill="#ce0c77" d="M72.5 2.5a971 971 0 0 0 26 26.5q3.312.285 6 1.5-4.328-.46-8 1h-21q2.648-1.442 6-1a41 41 0 0 0 9-.5 860 860 0 0 0-25-24.5q3.105-2.167 7-3"/><path style="opacity:.991" fill="#d20065" d="M65.5 5.5a860 860 0 0 1 25 24.5 41 41 0 0 1-9 .5q-3.703-1.225-8-1.5a515 515 0 0 1-19-19.5 27.4 27.4 0 0 1 11-4"/><path style="opacity:.996" fill="#db004c" d="M54.5 9.5a515 515 0 0 0 19 19.5q4.297.275 8 1.5-3.352-.442-6 1h-5q-3.672-1.46-8-1-7.5-8.5-16-16 3.44-3.23 8-5"/><path style="opacity:1" fill="#df003f" d="M46.5 14.5q8.5 7.5 16 16-2.17 1.67-5 .5-6.888-7.65-15-13.5 1.404-2.211 4-3"/><path style="opacity:.986" fill="#e4022e" d="M42.5 17.5q8.112 5.85 15 13.5 2.83 1.17 5-.5 4.328-.46 8 1-9.444.112-18 4-7.974-6.478-14-15 1.144-2.643 4-3"/><path style="opacity:.971" fill="#ee0314" d="M38.5 20.5q6.026 8.522 14 15l-10 7a138.6 138.6 0 0 1-13-15 45.8 45.8 0 0 1 9-7"/><path style="opacity:1" fill="#fefdfd" d="M70.5 31.5h48q11.118-.157 22 2 19.64 6.14 25 26 2.378 7.763 2 16v55q-1.452 3.161-1 7a71 71 0 0 0-3 9q-7.375 14.365-23 19l-10 2h-65q-31.97-6.468-34-39v-57q-.354-4.663 1-9 1.872-11.647 10-20l10-7q8.556-3.889 18-4"/><path style="opacity:1" fill="#f41e08" d="M29.5 27.5a138.6 138.6 0 0 0 13 15q-8.128 8.353-10 20-1.338-2.793-.5-6a304 304 0 0 1-14.5-15 121 121 0 0 1 12-14"/><path style="opacity:1" fill="#de0141" d="M79.5 44.5q5.807-.473 11 1a32.4 32.4 0 0 0-8 .5l16 16a71 71 0 0 0 9 1.5q-.513 1.257-2 1a76 76 0 0 0-15 1q-11.731-7.711-21-19a626 626 0 0 0 10-2"/><path style="opacity:1" fill="#d90052" d="M90.5 45.5a216 216 0 0 0 17 18 71 71 0 0 1-9-1.5l-16-16a32.4 32.4 0 0 1 8-.5"/><path style="opacity:1" fill="#d50c64" d="M66.5 44.5q15.23-1.492 31-1 3.161 1.453 7 1-1.144 1.152-3 1.5L153 97.5q.315-2.337 1.5-4-.46 4.328 1 8 .49 14.771-1 29v-16a72.4 72.4 0 0 0-.5-12l-1 6-18-17a2.43 2.43 0 0 0-.5 2q-5.98-22.98-29-29 1.487.257 2-1a216 216 0 0 1-17-18q-5.193-1.473-11-1z"/><path style="opacity:1" fill="#cf016d" d="M104.5 44.5q8.497 7.69 20.5 20 .938-3.31 2.5-4 0 11 11 11 .657-.098 1 .5l-2 1L153 88.5l1-4q.747 4.473.5 9-1.185 1.663-1.5 4L101.5 46q1.856-.348 3-1.5"/><path style="opacity:1" fill="#cc0279" d="M97.5 43.5h16q3.297.998 7 2a85.7 85.7 0 0 0 11 11q-2.54 1.54-4 4-1.562.69-2.5 4-12.003-12.31-20.5-20-3.839.453-7-1"/><path style="opacity:1" fill="#c51591" d="M113.5 43.5q46.038-5.958 42 40-1.239-7.226-1.5-15l-1 5q-7.232-4.687-8-13-.575.835-1.5 1-.358-3.973-4-5.5-4.141-1.083-8 .5a85.7 85.7 0 0 1-11-11 246 246 0 0 1-7-2"/><path style="opacity:1" fill="#e90522" d="M66.5 44.5h13a626 626 0 0 1-10 2q9.269 11.289 21 19-6.771 1.583-12 6-1.647-1.345 0-2.5l-19-19a10.1 10.1 0 0 0-4-1.5q4.74-3.75 11-4"/><path style="opacity:.999" fill="#f7520f" d="M17.5 41.5a304 304 0 0 0 14.5 15q-.838 3.207.5 6-1.354 4.337-1 9l-21-18q2.725-6.45 7-12"/><path style="opacity:1" fill="#fef8fb" d="M143.5 61.5q.638 6.725-5 10-11 0-11-11 1.46-2.46 4-4 3.859-1.583 8-.5 3.642 1.527 4 5.5"/><path style="opacity:.998" fill="#f96d12" d="m10.5 53.5 21 18v4q-1.477 6.201-1 13-1.017-4.52-4.5-8A215 215 0 0 1 9.5 64q-2.54-.726-4 1.5 1.355-6.585 5-12"/><path style="opacity:1" fill="#f3100a" d="M55.5 48.5q2.133.314 4 1.5l19 19q-1.647 1.155 0 2.5-7.145 5.142-11 13-7.855-10.39-19-20a11.64 11.64 0 0 1-2-5q2.025-7.562 9-11"/><path style="opacity:1" fill="#fffbfb" d="M105.5 64.5q23.02 6.02 29 29v9a19.2 19.2 0 0 0-1 6 50.6 50.6 0 0 1-6 12q-7.438 9.426-19 13l-6 1q-36.412-1.412-38-38a30.5 30.5 0 0 1 3-12q3.855-7.858 11-13 5.229-4.417 12-6a76 76 0 0 1 15-1"/><path style="opacity:.997" fill="#c0009b" d="M199.5 93.5v16a775 775 0 0 0-32-34q.378-8.237-2-16 15.913 16.914 34 34"/><path style="opacity:.999" fill="#fa8616" d="M30.5 88.5v13a59782 59782 0 0 0-27-30q-.36-3.597 2-6 1.46-2.226 4-1.5A215 215 0 0 0 26 80.5q3.483 3.48 4.5 8"/><path style="opacity:1" fill="#f6390c" d="M46.5 59.5a11.64 11.64 0 0 0 2 5q11.145 9.61 19 20a30.5 30.5 0 0 0-3 12q-1.215 2.688-1.5 6l-1-8-16-16q-.285 3.312-1.5 6v-18q-.136-3.979 2-7"/><path style="opacity:1" fill="#cb077c" d="M155.5 83.5v18q-1.46-3.672-1-8a41 41 0 0 0-.5-9l-1 4L137.5 73l2-1q-.343-.598-1-.5 5.638-3.275 5-10 .925-.165 1.5-1 .768 8.313 8 13l1-5q.261 7.774 1.5 15"/><path style="opacity:1" fill="#fb9618" d="M3.5 71.5a59782 59782 0 0 1 27 30 50.4 50.4 0 0 1-.5 10l-1-4a539 539 0 0 1-27.5-29q-.136-3.979 2-7"/><path style="opacity:1" fill="#e5002c" d="M101.5 78.5q9 10 19 19a18.5 18.5 0 0 1-.5 6L96.5 79q2.45-.74 5-.5"/><path style="opacity:.993" fill="#c40391" d="M167.5 75.5a775 775 0 0 1 32 34v5q-1.401 1.602-1 4a1121 1121 0 0 1-28.5-28l-1-9q-.348 1.855-1.5 3z"/><path style="opacity:1" fill="#eb1322" d="M104.5 77.5q-1.064 1.356-3 1-2.55-.24-5 .5l23.5 24.5q.743-2.96.5-6-.356-1.936 1-3 3.087 10.06-4 18a414 414 0 0 0-29-30.5q1.818-1.66-1-1.5 7.835-5.728 17-3"/><path style="opacity:1" fill="#e1133a" d="M104.5 77.5q14.015 3.015 17 17-1.356 1.064-1 3-10-9-19-19 1.936.356 3-1"/><path style="opacity:.999" fill="#fca424" d="M31.5 75.5v43q-1.185 1.663-1.5 4a46.7 46.7 0 0 0-1.5-8 595 595 0 0 1-29-29v-1a44 44 0 0 0 2-6 539 539 0 0 0 27.5 29l1 4q.747-4.975.5-10v-13q-.477-6.799 1-13"/><path style="opacity:.996" fill="#fcb01b" d="M-.5 85.5a595 595 0 0 0 29 29 46.7 46.7 0 0 1 1.5 8q.315-2.337 1.5-4v10a18.4 18.4 0 0 1-.5 6 31.8 31.8 0 0 0-2.5-9 1127 1127 0 0 0-29-28z"/><path style="opacity:1" fill="#d90151" d="M154.5 114.5q-1.083.627-1.5 2l-16-16-1-4q-.286 3.312-1.5 6v-9a2.43 2.43 0 0 1 .5-2l18 17 1-6q.749 5.979.5 12"/><path style="opacity:1" fill="#f86413" d="M64.5 96.5q1.588 36.588 38 38-2.688 1.214-6 1.5a216 216 0 0 1 18 17q-3.312.286-6 1.5a61 61 0 0 1-11-.5l4-1L46 97.5l-1 5q-.75-8.985-.5-18 1.215-2.688 1.5-6l16 16 1 8q.285-3.312 1.5-6"/><path style="opacity:1" fill="#f3180b" d="M87.5 80.5q2.818-.16 1 1.5a414 414 0 0 1 29 30.5q-2.281 5.422-8 7.5-7.51 3.384-15 1.5 3.196-1.221 7-1.5L79 97.5q-.279 3.804-1.5 7-3.237-15.516 10-24"/><path style="opacity:.99" fill="#c90782" d="m198.5 118.5-2 7q-13.913-11.63-27.5-26a41 41 0 0 0-.5 9q.257 1.487-1 2v-26q1.152-1.145 1.5-3l1 9a1121 1121 0 0 0 28.5 28"/><path style="opacity:1" fill="#f9781c" d="M44.5 66.5v18q-.25 9.015.5 18l1-5 55.5 55.5-4 1q5.478.748 11 .5h19q-15.23 1.492-31 1-21.466-22.698-50.5-51-.297 2.823-1.5 5 .401-2.398-1-4a381 381 0 0 1 1-39"/><path style="opacity:1" fill="#f63b0f" d="M94.5 121.5q-13.985-2.985-17-17 1.221-3.196 1.5-7l22.5 22.5q-3.804.279-7 1.5"/><path style="opacity:1" fill="#fa8616" d="M96.5 155.5h-13q-.513-1.257-2-1 .627-1.083 2-1.5L46 115.5l-1 2a32.4 32.4 0 0 1-.5-8q1.203-2.177 1.5-5 29.034 28.302 50.5 51"/><path style="opacity:1" fill="#cd0074" d="M196.5 125.5q-.604 4.478-3 8-12-13-25-25a41 41 0 0 1 .5-9q13.587 14.37 27.5 26"/><path style="opacity:1" fill="#e0043b" d="M154.5 114.5v10a112 112 0 0 0-2 5q-11.289-9.269-19-21a19.2 19.2 0 0 1 1-6q1.214-2.688 1.5-6l1 4 16 16q.417-1.373 1.5-2"/><path style="opacity:.999" fill="#d2076a" d="M168.5 108.5q13 12 25 25a29.4 29.4 0 0 1-2 7 342 342 0 0 0-22-22q-1.224.985-2 4v-12q1.257-.513 1-2"/><path style="opacity:1" fill="#e90422" d="M133.5 108.5q7.711 11.731 19 21a112 112 0 0 1 2-5v6q-.025 6.051-3 11-10.164-9.399-21-20.5a4.93 4.93 0 0 0-3-.5 50.6 50.6 0 0 0 6-12"/><path style="opacity:1" fill="#fb981a" d="M43.5 105.5q1.401 1.602 1 4a32.4 32.4 0 0 0 .5 8l1-2L83.5 153q-1.373.417-2 1.5a72.4 72.4 0 0 1-12-.5l2-1L46 127.5q-.348 1.856-1.5 3a164 164 0 0 1-1-25"/><path style="opacity:1" fill="#d6005c" d="M169.5 118.5a342 342 0 0 1 22 22q-1.144 2.802-3 5-8.315-10.577-18.5-20a25 25 0 0 1-.5-7"/><path style="opacity:1" fill="#da004f" d="M169.5 118.5q-.245 3.535.5 7 10.185 9.423 18.5 20a409 409 0 0 1-3 6q-1.911-1.034 0-2.5a467 467 0 0 1-18-18.5v-8q.776-3.015 2-4"/><path style="opacity:.98" fill="#fecf1f" d="M81.5 198.5q-65.355-14.856-81-80 1.083-.627 1.5-2a4463 4463 0 0 0 79 80q.696.891.5 2"/><path style="opacity:1" fill="#fcab21" d="M81.5 154.5q1.487-.257 2 1-14.685 1.569-28-4.5-10.78-7.306-11-20.5 1.152-1.144 1.5-3L71.5 153l-2 1q5.979.749 12 .5"/><path style="opacity:1" fill="#f31a0a" d="M127.5 120.5a4.93 4.93 0 0 1 3 .5q10.836 11.101 21 20.5-7.469 14.244-24 13h-9q4.712-1.231 10-1.5a547 547 0 0 0-20-19.5q11.562-3.574 19-13"/><path style="opacity:1" fill="#f74a0e" d="M108.5 133.5a547 547 0 0 1 20 19.5q-5.288.269-10 1.5h-10q2.688-1.214 6-1.5a216 216 0 0 0-18-17q3.312-.286 6-1.5z"/><path style="opacity:.986" fill="#df0342" d="M167.5 130.5a467 467 0 0 0 18 18.5q-1.911 1.466 0 2.5a21.6 21.6 0 0 1-4 5 95 95 0 0 0-13.5-15q-.315-2.337-1.5-4-.452-3.839 1-7"/><path style="opacity:1" fill="#e5042e" d="M166.5 137.5q1.185 1.663 1.5 4a95 95 0 0 1 13.5 15q-.357 2.856-3 4-8.522-6.026-15-14a71 71 0 0 1 3-9"/><path style="opacity:1" fill="#f2190c" d="M163.5 146.5q6.478 7.974 15 14-8.386 13.202-22 21a181 181 0 0 0-16-16q15.625-4.635 23-19"/><path style="opacity:.983" fill="#fec21f" d="M-.5 97.5a1127 1127 0 0 1 29 28 31.8 31.8 0 0 1 2.5 9q.743-2.96.5-6 2.03 32.532 34 39a9263 9263 0 0 0 31 32h-12q-1.064-1.356-3-1a2.43 2.43 0 0 0-.5-2 4463 4463 0 0 1-79-80q-.417 1.373-1.5 2 .402-2.398-1-4z"/><path style="opacity:.994" fill="#f7470f" d="M140.5 165.5a181 181 0 0 1 16 16q-2.47 2.74-6 4a253 253 0 0 0-20-18z"/><path style="opacity:.994" fill="#fdb41c" d="M65.5 167.5h9v1q.645 1.381 4 1.5a1207 1207 0 0 1 29 29.5h-11a9263 9263 0 0 1-31-32"/><path style="opacity:.993" fill="#fca71a" d="M74.5 168.5q6.994.693 14 1.5a1121 1121 0 0 1 28 28.5q-1.487-.257-2 1h-7a1207 1207 0 0 0-29-29.5q-3.355-.119-4-1.5"/><path style="opacity:.999" fill="#fb9c24" d="M74.5 168.5v-1h49q-7.71 1.482-16 1-8.687-.664-11 1 14.07 14.03 26 28a19.2 19.2 0 0 1-6 1 1121 1121 0 0 0-28-28.5 885 885 0 0 0-14-1.5"/><path style="opacity:1" fill="#fa8e17" d="M96.5 169.5a32.5 32.5 0 0 1 8 .5 286 286 0 0 1 24 25.5 31.7 31.7 0 0 1-6 2q-11.93-13.97-26-28"/><path style="opacity:.983" fill="#f97f14" d="M107.5 168.5q5.216 1.235 11 1.5a664 664 0 0 0 22 21.5 127 127 0 0 1-12 4 286 286 0 0 0-24-25.5 32.5 32.5 0 0 0-8-.5q2.313-1.664 11-1"/><path style="opacity:.999" fill="#f86210" d="M123.5 167.5h7a253 253 0 0 1 20 18q-4.449 3.732-10 6a664 664 0 0 1-22-21.5q-5.784-.265-11-1.5 8.29.482 16-1"/></svg>