<svg xmlns="http://www.w3.org/2000/svg" width="200" height="200" style="shape-rendering:geometricPrecision;text-rendering:geometricPrecision;image-rendering:optimizeQuality;fill-rule:evenodd;clip-rule:evenodd"><path style="opacity:1" fill="#b2cf01" d="M99.5.5v47h-1a1836 1836 0 0 0-39-21.5q-2.39-1.423-4-3.5Q74.019 10.293 94.5 1q2.45-.74 5-.5"/><path style="opacity:1" fill="#6ab704" d="M99.5.5q6.348.417 12 3.5a747 747 0 0 1 32 18.5 1372 1372 0 0 0-43 25h-1z"/><path style="opacity:1" fill="#fe6901" d="M53.5 23.5v50a409 409 0 0 1-41-23q1.054-3.324 4-5.5a510 510 0 0 1 37-21.5"/><path style="opacity:1" fill="#fea501" d="M55.5 22.5q1.61 2.077 4 3.5a1836 1836 0 0 1 39 21.5 497 497 0 0 1-45 26v-50q.513-1.258 2-1"/><path style="opacity:1" fill="#06d8bb" d="M144.5 23.5a225 225 0 0 1 40.5 24 10.1 10.1 0 0 1 1.5 4q-21.047 11.022-42 22-1 0-1-1a601 601 0 0 0 1-49"/><path style="opacity:1" fill="#03af9c" d="M143.5 22.5q1 0 1 1a601 601 0 0 1-1 49 459 459 0 0 1-43-25 1372 1372 0 0 1 43-25"/><path style="opacity:1" fill="#f93849" d="M12.5 50.5a409 409 0 0 0 41 23v1a1473 1473 0 0 1-45 25q-.25-21.006.5-42 1.347-3.854 3.5-7"/><path style="opacity:1" fill="#803d8a" d="M186.5 51.5q1.94 2.013 2.5 5 .75 22.494.5 45h-1q-.656-2.361-3-3.5a56540 56540 0 0 1-41-23.5v-1q20.953-10.978 42-22"/><path style="opacity:1" fill="#813d8a" d="M53.5 74.5v50a502 502 0 0 1-45-24v-1a1473 1473 0 0 0 45-25"/><path style="opacity:1" fill="#503086" d="M144.5 74.5q20.418 11.715 41 23.5 2.344 1.139 3 3.5l-44 23z"/><path style="opacity:1" fill="#4f3186" d="M8.5 100.5a502 502 0 0 0 45 24v1a1252 1252 0 0 0-41 24 115 115 0 0 1-3.5-8 841 841 0 0 1-.5-41"/><path style="opacity:1" fill="#f93849" d="M188.5 101.5h1a840 840 0 0 1-.5 41 86 86 0 0 1-2.5 7l-42-24v-1z"/><path style="opacity:1" fill="#0368a4" d="M53.5 125.5v50a356 356 0 0 1-29-15.5q-7.179-3.93-12-10.5a1252 1252 0 0 1 41-24"/><path style="opacity:.999" fill="#fe6a01" d="m144.5 125.5 42 24a36.4 36.4 0 0 1-9 8.5 87193 87193 0 0 0-33 18.5z"/><path style="opacity:.999" fill="#03bdcb" d="M53.5 125.5a849 849 0 0 1 44 24q.128 1.494-1 2.5a621 621 0 0 0-41 24.5q-1.487.257-2-1z"/><path style="opacity:1" fill="#fda601" d="M144.5 125.5v51h-1a1275 1275 0 0 0-42-24.5q-1.128-1.006-1-2.5a149882 149882 0 0 0 44-24"/><path style="opacity:.999" fill="#b2cf01" d="M100.5 149.5q-.128 1.494 1 2.5a1275 1275 0 0 1 42 24.5 650 650 0 0 1-30 17.5q-6.4 4.216-14 4.5v-48q0-1 1-1"/><path style="opacity:1" fill="#6ab705" d="m97.5 149.5 2 1v48a30.5 30.5 0 0 1-9-1.5 450 450 0 0 1-35-20.5 621 621 0 0 1 41-24.5q1.128-1.006 1-2.5"/></svg>