<svg xmlns="http://www.w3.org/2000/svg" width="200" height="200" style="shape-rendering:geometricPrecision;text-rendering:geometricPrecision;image-rendering:optimizeQuality;fill-rule:evenodd;clip-rule:evenodd"><path style="opacity:.981" fill="#fdfdfe" d="M85.5-.5h28q70.824 14.325 86 85v30q-4.222 22.395-17 41.5a414 414 0 0 1 5 41.5 1035 1035 0 0 0-37.5-10q-17.344 7.698-35.5 12h-29q-56.205-10.506-79.5-63a200 200 0 0 1-6.5-23v-28Q10.006 29.295 62.5 6a200 200 0 0 1 23-6.5"/><path style="opacity:1" fill="#184d9d" d="M178.5 50.5q-2.077-1.61-3.5-4A317 317 0 0 1 144.5 69a36.6 36.6 0 0 1 4 6.5 209 209 0 0 0-12-12.5A255 255 0 0 1 116 45.5q-10.201-19.858 9.5-30.5a42.5 42.5 0 0 1 13 0q26.392 10.647 40 35.5"/><path style="opacity:1" fill="#1169b2" d="M62.5 45.5a2.43 2.43 0 0 0-.5-2q-.244 3.265-2.5 5.5a388 388 0 0 1-42 8q1.911-1.465 0-2.5Q38.743 16.593 81.5 7q17.5-3 35 0-42.894-2.355-54 38.5"/><path style="opacity:1" fill="#1761ab" d="M62.5 45.5q-2.988 22.844 3 45-1.215 1.453-3 2.5a3231 3231 0 0 1-55 11.5q.482-8.29-1-16 1.326-18.475 11-34 1.911 1.035 0 2.5a388 388 0 0 0 42-8q2.256-2.235 2.5-5.5.696.891.5 2"/><path style="opacity:1" fill="#1055a5" d="M178.5 50.5q22.435 34.125 11.5 74a323 323 0 0 1-13.5 31 196.7 196.7 0 0 1 3.5 34 605 605 0 0 1-33-9q-38.791 21.752-80.5 6.5-7.761-2.627-14-7.5 41.807 19.411 82-3.5 27.156-21.31 28-56 .044-24.61-14-44.5a36.6 36.6 0 0 0-4-6.5A317 317 0 0 0 175 46.5q1.423 2.39 3.5 4"/><path style="opacity:1" fill="#175aa4" d="M6.5 88.5q1.482 7.71 1 16a3231 3231 0 0 0 55-11.5q1.785-1.047 3-2.5a387 387 0 0 1 7 21q-1.55 1.78-4 2.5A854 854 0 0 0 12 127.5q-.938-3.31-2.5-4-5.64-17.177-3-35"/><path style="opacity:1" fill="#1755a0" d="M72.5 111.5a38.3 38.3 0 0 1 4 13q-1.029 2.022-3 3.5A4625 4625 0 0 0 18 140.5a3.94 3.94 0 0 1-2-1l-3-7q-.598.343-.5 1-2.4-4.576-3-10 1.562.69 2.5 4A854 854 0 0 1 68.5 114q2.45-.72 4-2.5"/><path style="opacity:1" fill="#1d4f9c" d="M76.5 124.5q4.32 29.541-25 37.5-19.943 2.901-31.5-13.5a39.75 39.75 0 0 1-7.5-15q-.098-.657.5-1l3 7a3.94 3.94 0 0 0 2 1A4625 4625 0 0 1 73.5 128q1.971-1.478 3-3.5"/><path style="opacity:1" fill="#85a4cf" d="M52.5 179.5q-6.405-1.703-11-6.5 1-1 2 0a937 937 0 0 1 9 6.5"/></svg>