<svg xmlns="http://www.w3.org/2000/svg" width="200" height="200" style="shape-rendering:geometricPrecision;text-rendering:geometricPrecision;image-rendering:optimizeQuality;fill-rule:evenodd;clip-rule:evenodd"><path style="opacity:.998" fill="#35ade1" d="M85.5-.5h29q31.01 5.505 54 27-33.985 2-69 2-34.755 0-69-1 22.773-23.137 55-28"/><path style="opacity:1" fill="#32aadf" d="M168.5 26.5a93.8 93.8 0 0 1 18 23q-1.184.424-2 1.5l-85.5.5a1881 1881 0 0 1-86.5-2q6.862-12.713 18-22 34.245 1 69 1 35.015 0 69-2"/><path style="opacity:.998" fill="#2ea5dc" d="M12.5 49.5a1881 1881 0 0 0 86.5 2l85.5-.5q.816-1.076 2-1.5 9.477 16.445 13 35v9a771 771 0 0 0-55-1q.356-1.936-1-3a203 203 0 0 0 5-33 24.4 24.4 0 0 0-10 1.5 5240 5240 0 0 0-90 33.5q-.09-.814-1-1l-6 3a465 465 0 0 0-42-1v-7q3.499-18.989 13-36"/><path style="opacity:1" fill="#fdfefe" d="M143.5 89.5a1162 1162 0 0 0-11 46 147 147 0 0 1-2.5 8q-2.712 2.844-6.5 1.5-11.015-9-23-16.5a231 231 0 0 0-17-12q2.58-4.846 7-8.5A444 444 0 0 0 127 73.5q1-1 0-2a1096 1096 0 0 1-59.5 36 215 215 0 0 1-25-7.5q-2.26-1.256-1.5-3.5 3.149-3.446 7.5-5a5240 5240 0 0 1 90-33.5 24.4 24.4 0 0 1 10-1.5 203 203 0 0 1-5 33"/><path style="opacity:1" fill="#c8d9e9" d="M83.5 116.5a543 543 0 0 0-4 24q-.444-2.855-2-5a698 698 0 0 0-10-28 1096 1096 0 0 0 59.5-36q1 1 0 2A444 444 0 0 1 90.5 108q-4.42 3.654-7 8.5"/><path style="opacity:.999" fill="#289ed9" d="M48.5 91.5q-4.351 1.554-7.5 5-.76 2.244 1.5 3.5a215 215 0 0 0 25 7.5 698 698 0 0 1 10 28q-1.083.627-1.5 2a1148 1148 0 0 0-67.5-1v5a128.5 128.5 0 0 1-9-27v-22q20.76-.455 42 1l6-3q.91.186 1 1"/><path style="opacity:.999" fill="#299fd9" d="M143.5 89.5q1.356 1.064 1 3a771 771 0 0 1 55 1v21q-3.089 14.316-9 28-1.15-1.008-2-2.5 2.21-1.065 2-3.5-28.603.97-56.5-2-.575.834-1.5 1a1162 1162 0 0 1 11-46"/><path style="opacity:1" fill="#a9c6d8" d="M83.5 116.5a231 231 0 0 1 17 12q-9.04 5.271-16 13.5-3.26 1.316-5-1.5a543 543 0 0 1 4-24"/><path style="opacity:.999" fill="#2399d6" d="M100.5 128.5q11.985 7.5 23 16.5 3.788 1.344 6.5-1.5a147 147 0 0 0 2.5-8q.925-.166 1.5-1 27.897 2.97 56.5 2 .21 2.435-2 3.5.85 1.492 2 2.5-7.947 16.415-21 29a2.43 2.43 0 0 0-.5-2 2416 2416 0 0 1-139 0 2.43 2.43 0 0 0-.5 2q-13.45-12.888-21-30v-5q33.863-.49 67.5 1 .417-1.373 1.5-2 1.556 2.145 2 5 1.74 2.816 5 1.5 6.96-8.229 16-13.5"/><path style="opacity:1" fill="#1f95d3" d="M169.5 171.5q-23.194 22.347-55 28h-30q-31.806-5.653-55-28a2.43 2.43 0 0 1 .5-2 2416 2416 0 0 0 139 0q.696.891.5 2"/></svg>