<svg xmlns="http://www.w3.org/2000/svg" width="512" height="512" style="shape-rendering:geometricPrecision;text-rendering:geometricPrecision;image-rendering:optimizeQuality;fill-rule:evenodd;clip-rule:evenodd"><path style="opacity:.998" fill="#03c001" d="M233.5-.5h44q144.64 17.43 210.5 147 19.051 41.718 23.5 87v44q-17.431 144.64-147 210.5-41.718 19.051-87 23.5h-44Q87.76 493.476 22 362.5q-18.093-40.884-22.5-85v-44Q13.164 112.17 112.5 42q55.385-36.044 121-42.5"/><path style="opacity:1" fill="#fbfefb" d="M263.5 87.5q20.3 1.05 40 6a484 484 0 0 1 32 13q35.49 19.722 59.5 53a62 62 0 0 1 4.5 9 20.4 20.4 0 0 0 3 8q-1.625 3.562 0 7 1.137-1.966 3-1.5a33.3 33.3 0 0 1 3.5 8.5 14.7 14.7 0 0 0 3.5 3q5.875 11.61 7 25 4.188 27.241 3 55v8a1208 1208 0 0 1-7 29 264 264 0 0 0-11 24q-55.445 93.251-165 89a720 720 0 0 0-25-5q-18.986-5.473-37-14.5-11.521.387-22 4.5a581 581 0 0 0-46 12 263 263 0 0 1-22 5q.126-4.24 2-8a184 184 0 0 0 3-13q3.081-3.762 3-9v-4q4.185-14.155 9-28 2.21-3.124 3.5-7a51.7 51.7 0 0 0 2.5-15 8.4 8.4 0 0 0-.5-4 154 154 0 0 1-10.5-21v-1a136.5 136.5 0 0 1-9-37q-2.08-31.743 3-63v-1q1.495.129 2.5-1a871 871 0 0 1 5-20q1.926 1.608 1 4 2.723-3.49.5-7.5 2.269-2.819 2-6.5 19.493-41.252 57-67.5a83 83 0 0 1 15-8.5q6.534-.521 11-5a50.5 50.5 0 0 1 12-6 54 54 0 0 1 8-2q6.441 1.04 11-3h1a91.7 91.7 0 0 0 15-1.5q.834-.575 1-1.5 13.728-1.49 28-1"/><path style="opacity:1" fill="#dafdd2" d="M235.5 88.5q-.166.925-1 1.5a91.7 91.7 0 0 1-15 1.5q7.544-2.873 16-3"/><path style="opacity:1" fill="#33be2f" d="M263.5 87.5q-14.272-.49-28 1-8.456.127-16 3h-1q-5.89.639-11 3a54 54 0 0 0-8 2q1.272-2.39 4-3.5 11.139-1.935 19.5-5.5a255.6 255.6 0 0 1 40.5 0"/><path style="opacity:1" fill="#d9fcd9" d="M218.5 91.5q-4.559 4.04-11 3 5.11-2.361 11-3"/><path style="opacity:1" fill="#34bd2e" d="M303.5 93.5q18.557 1.093 32 13a484 484 0 0 0-32-13"/><path style="opacity:1" fill="#dafedf" d="M187.5 102.5q-4.466 4.479-11 5 4.86-3.677 11-5"/><path style="opacity:1" fill="#e4ffde" d="M279.5 116.5a273.5 273.5 0 0 0-46 0q.166-.925 1-1.5a462 462 0 0 1 43 0q1.374.417 2 1.5"/><path style="opacity:1" fill="#1ebc18" d="m279.5 116.5 8 3a55.5 55.5 0 0 1 14 3l3 2a750 750 0 0 0-51 0 9148 9148 0 0 0-35-2 47 47 0 0 1-13 3q13.279-6.328 28-9a273.5 273.5 0 0 1 46 0"/><path style="opacity:1" fill="#04c201" d="M287.5 119.5q1.167.984 2 2.5l-1 1.5a742 742 0 0 0-66-2.5q21.106-6.515 43-3.5 1.589 1.794 4 2a50.9 50.9 0 0 1 18 0"/><path style="opacity:1" fill="#05c102" d="M304.5 124.5a129.3 129.3 0 0 1 20 8q26.726 15.72 45 41 1.264 4.524 4.5 8l1 10q.663-3.268 3-2a139 139 0 0 0 7.5 14q6.723 11.376 8 25a406 406 0 0 1 .5 45 764 764 0 0 0-9.5 37 5.73 5.73 0 0 0-1 3q-16.922 34.834-48 58a129 129 0 0 0-16 9 150.2 150.2 0 0 1-37 12 318 318 0 0 1-37 .5 126.6 126.6 0 0 0-24-3q-9.656-5.795-21-6.5a247 247 0 0 1-19-9q-11.281-.547-22 4l-24 5q-3.673.836-7 0a83.4 83.4 0 0 0 4.5-14q3.504-1.188 1.5-4 4.501-9.998 4-21a31.5 31.5 0 0 0 1.5-11 213 213 0 0 1-15.5-30q-.651-6.672-4-12v-4a326 326 0 0 1-1.5-54 108 108 0 0 0 2-9 21 21 0 0 1 2.5-1 15 15 0 0 1-1-4.5 49 49 0 0 0 3-12.5q16.94-45.94 59-71a101 101 0 0 0 21-10 47 47 0 0 0 13-3q17.511.967 35 2a750 750 0 0 1 51 0"/><path style="opacity:1" fill="#e5fde2" d="M301.5 122.5a335 335 0 0 1 21 6.5q1.984 1.224 2 3.5a129.3 129.3 0 0 0-20-8z"/><path style="opacity:1" fill="#39bb2e" d="M205.5 125.5a101 101 0 0 1-21 10q9.433-6.964 21-10"/><path style="opacity:1" fill="#2bb926" d="M218.5 194.5a27.2 27.2 0 0 0-3-5q-4.313-17.466-22-11.5-1.856.348-3 1.5h-1q-.129-1.494 1-2.5a163 163 0 0 0 17.5-1.5q2.724 1.244 5.5 2.5a157 157 0 0 1 5 16.5"/><path style="opacity:1" fill="#fcfefc" d="M215.5 189.5q-1.137 7.107 4 12a20.2 20.2 0 0 1 1.5 6q.417-1.374 1.5-2 5.767 8.576 4.5 19a196 196 0 0 0-13.5 18.5q20.156 40.407 63 54.5 11.437-6.189 17.5-18 2.158-2.922 5.5-4a264 264 0 0 1 41.5 20q1.587 31.683-29.5 39-16.289.964-32-3-3.435-4.08-9-4.5-1.255-1.517-1-3.5-9.026.756-17-3-24.958-13.177-44.5-34a358 358 0 0 1-20-25 80.5 80.5 0 0 1-11.5-21q-1.177-7.072-4-13a118.5 118.5 0 0 1 2-28q0-1 1-1a101 101 0 0 1 5-7.5q2.879-2.9 4.5.5a16.6 16.6 0 0 0-.5-7q2-3 5-5h1a67.2 67.2 0 0 1 17-.5q5.204 4.461 8 10.5"/><path style="opacity:1" fill="#e0fedf" d="M215.5 189.5q-2.796-6.039-8-10.5a67.2 67.2 0 0 0-17 .5q1.144-1.152 3-1.5 17.687-5.966 22 11.5"/><path style="opacity:1" fill="#ebfee5" d="M399.5 168.5a89.3 89.3 0 0 1 13 25 14.7 14.7 0 0 1-3.5-3 33.3 33.3 0 0 0-3.5-8.5q-1.863-.466-3 1.5-1.625-3.438 0-7a20.4 20.4 0 0 1-3-8"/><path style="opacity:1" fill="#ebfee3" d="M184.5 184.5q1 3.479.5 7-1.621-3.4-4.5-.5a101 101 0 0 0-5 7.5q.66-4.32 3-8a25.6 25.6 0 0 1 6-6"/><path style="opacity:1" fill="#35bb30" d="M369.5 173.5q11.134 13.266 16 30a139 139 0 0 1-7.5-14q-2.337-1.268-3 2l-1-10q-3.236-3.476-4.5-8"/><path style="opacity:1" fill="#e3fddf" d="M215.5 189.5a27.2 27.2 0 0 1 3 5l4 11q-1.083.626-1.5 2a20.2 20.2 0 0 0-1.5-6q-5.137-4.893-4-12"/><path style="opacity:1" fill="#eafde4" d="M104.5 183.5q.269 3.681-2 6.5 2.223 4.01-.5 7.5.926-2.392-1-4a871 871 0 0 0-5 20q-1.005 1.129-2.5 1 3-16.566 11-31"/><path style="opacity:1" fill="#dbfdd9" d="M174.5 199.5a118.5 118.5 0 0 0-2 28q-1.733-10.732-.5-22 .85-3.335 2.5-6"/><path style="opacity:1" fill="#3fc335" d="M178.5 190.5a20.5 20.5 0 0 0-3 8q-1 0-1 1-1.65 2.665-2.5 6-1.233 11.268.5 22a54 54 0 0 0 2 10q-1.935-.837-2.5-3l-1 1a240 240 0 0 1 0-31q1.577-7.47 4.5-14z"/><path style="opacity:1" fill="#dcfeda" d="M172.5 227.5q2.823 5.928 4 13l-2-3a54 54 0 0 1-2-10"/><path style="opacity:1" fill="#39bd31" d="M92.5 217.5q-6.61 30.449-2 61a136.5 136.5 0 0 0 9 37q-2.375-2.154-4.5-5l-1-8a1373 1373 0 0 1-6.5-18.5q1.975-6.263-.5-12.5-2.52-26.985 4-53 .575-.834 1.5-1"/><path style="opacity:1" fill="#d8fdd3" d="M419.5 218.5a247 247 0 0 1 5 21q.631 17.328-2 34 1.188-27.759-3-55"/><path style="opacity:1" fill="#45bf3c" d="M393.5 228.5q2.966 12.106 3 25-.59 10.501-1 21-3.274 18.534-11 36a764 764 0 0 1 9.5-37 406 406 0 0 0-.5-45"/><path style="opacity:1" fill="#e0fee0" d="M93.5 215.5q-5.08 31.257-3 63-4.61-30.551 2-61-.257-1.487 1-2"/><path style="opacity:1" fill="#41be3a" d="M125.5 206.5a49 49 0 0 1-3 12.5 15 15 0 0 0 1 4.5q-1.12.355-2.5 1a108 108 0 0 1-2 9 326 326 0 0 0 1.5 54q-2.532-7.63-3.5-16-2.024-25.247 3-50 1.756-8.036 5.5-15"/><path style="opacity:1" fill="#24b821" d="M424.5 239.5q1.337 1.142 2 3-2.12 12.09 1 24-2.948 7.696-5 15v-8q2.631-16.672 2-34"/><path style="opacity:1" fill="#ebfce9" d="M395.5 274.5a15.9 15.9 0 0 0 1 6.5 12.8 12.8 0 0 0-2 4.5 129 129 0 0 0 .5 12l-1 2-1-8-1 10-1-1q-4.574 6.22-5 14-1.006-1.129-2.5-1a5.73 5.73 0 0 1 1-3q7.726-17.466 11-36"/><path style="opacity:1" fill="#d8fcd7" d="M120.5 291.5q3.349 5.328 4 12-5.14-4.599-4-12"/><path style="opacity:1" fill="#30be28" d="M422.5 281.5a51.7 51.7 0 0 1-2 16.5 20.15 20.15 0 0 1 .5 9.5 7.3 7.3 0 0 1-2-3q-1.314 3.387-3.5 6a1208 1208 0 0 0 7-29"/><path style="opacity:1" fill="#32c02c" d="M415.5 310.5a85 85 0 0 1-.5 13l-1 1-1-4a98 98 0 0 0-5.5 12q-1.148 1.668-3 2a264 264 0 0 1 11-24"/><path style="opacity:1" fill="#e6fde1" d="M252.5 320.5q7.974 3.756 17 3-.255 1.983 1 3.5 5.565.42 9 4.5a82 82 0 0 1-12-3.5q-8.01-3.005-15-7.5"/><path style="opacity:1" fill="#e0fde0" d="M279.5 331.5q15.711 3.964 32 3-10.732 1.733-22 .5-5.415-1.107-10-3.5"/><path style="opacity:1" fill="#26bf1f" d="M99.5 316.5a154 154 0 0 0 10.5 21 8.4 8.4 0 0 1 .5 4 265 265 0 0 0-6 22 623 623 0 0 0-9 28 855 855 0 0 0 2-14.5q3.04-4.12 3.5-9.5.67-20.994.5-41.5a39 39 0 0 1-2-9.5"/><path style="opacity:1" fill="#e5fee4" d="M110.5 341.5a51.7 51.7 0 0 1-2.5 15q-1.29 3.876-3.5 7a265 265 0 0 1 6-22"/><path style="opacity:1" fill="#36bd2f" d="M138.5 344.5q.501 11.002-4 21 2.004 2.812-1.5 4a83.4 83.4 0 0 1-4.5 14q3.327.836 7 0v1q-3.831 1.332-8 1a615 615 0 0 1 11-41"/><path style="opacity:1" fill="#e5fee5" d="M335.5 371.5q-3.351 3.586-8 5.5a14.8 14.8 0 0 0-3 4.5 9.1 9.1 0 0 0-5-1 129 129 0 0 1 16-9"/><path style="opacity:1" fill="#dbfed7" d="M181.5 374.5a378 378 0 0 1-22 4q10.719-4.547 22-4"/><path style="opacity:1" fill="#e0fcdf" d="M159.5 378.5a186 186 0 0 1-13 5.5 61 61 0 0 1-11 .5v-1z"/><path style="opacity:1" fill="#42c23a" d="M200.5 383.5q11.344.705 21 6.5a126.6 126.6 0 0 1 24 3q18.514.826 37-.5-42.421 8.676-82-9"/><path style="opacity:1" fill="#bdf9b6" d="M95.5 395.5q.081 5.238-3 9 .831-4.869 3-9"/><path style="opacity:1" fill="#3cbe36" d="M155.5 408.5a111 111 0 0 1-14 6.5q-12.024 1.17-23 5a41 41 0 0 1-9 .5 581 581 0 0 1 46-12"/><path style="opacity:1" fill="#35b62e" d="M214.5 418.5a720 720 0 0 1 25 5q-13.362-.13-25-5"/><path style="opacity:1" fill="#2fbe29" d="M89.5 417.5a19 19 0 0 0-2 8 263 263 0 0 0 22-5q-2.571 1.857-6 2 .255 1.983-1 3.5-7.494 1.803-15 1-1.653-3.601-.5-7.5 1.063-1.321 2.5-2"/></svg>